<svg xmlns="http://www.w3.org/2000/svg" width="1200" height="320" viewBox="0 0 1200 320" role="img" aria-label="SNACK cyberpunk HUD banner">
  <defs>
    <!-- ===== Color / gradients ===== -->
    <linearGradient id="bg" x1="0" y1="0" x2="1" y2="1">
      <stop offset="0" stop-color="#05060A"/>
      <stop offset="0.55" stop-color="#0A0F1C"/>
      <stop offset="1" stop-color="#05060A"/>
    </linearGradient>

    <linearGradient id="neonCyan" x1="0" y1="0" x2="1" y2="0">
      <stop offset="0" stop-color="#00FFE0"/>
      <stop offset="0.5" stop-color="#00BFFF"/>
      <stop offset="1" stop-color="#00FFE0"/>
    </linearGradient>
    <linearGradient id="neonMag" x1="0" y1="0" x2="1" y2="0">
      <stop offset="0" stop-color="#FF2BD6"/>
      <stop offset="0.5" stop-color="#FF6BFF"/>
      <stop offset="1" stop-color="#FF2BD6"/>
    </linearGradient>
    <linearGradient id="neonLime" x1="0" y1="0" x2="1" y2="0">
      <stop offset="0" stop-color="#39FF14"/>
      <stop offset="1" stop-color="#00FFE0"/>
    </linearGradient>

    <linearGradient id="scanBand" x1="0" y1="0" x2="0" y2="1">
      <stop offset="0" stop-color="#ffffff" stop-opacity="0"/>
      <stop offset="0.45" stop-color="#ffffff" stop-opacity="0.06"/>
      <stop offset="0.5" stop-color="#ffffff" stop-opacity="0.14"/>
      <stop offset="0.55" stop-color="#ffffff" stop-opacity="0.06"/>
      <stop offset="1" stop-color="#ffffff" stop-opacity="0"/>
    </linearGradient>

    <linearGradient id="haze" x1="0" y1="1" x2="0" y2="0">
      <stop offset="0" stop-color="#000" stop-opacity="0"/>
      <stop offset="0.35" stop-color="#000" stop-opacity="0.35"/>
      <stop offset="1" stop-color="#000" stop-opacity="0.78"/>
    </linearGradient>

    <!-- ===== Horizontal light sweep (like old) ===== -->
    <linearGradient id="sweep" x1="-0.2" y1="0" x2="1.2" y2="0">
      <stop offset="0" stop-color="#00FFE0" stop-opacity="0"/>
      <stop offset="0.45" stop-color="#00FFE0" stop-opacity="0"/>
      <stop offset="0.55" stop-color="#00FFE0" stop-opacity="0.22"/>
      <stop offset="0.64" stop-color="#FF2BD6" stop-opacity="0.16"/>
      <stop offset="1" stop-color="#FF2BD6" stop-opacity="0"/>
      <animate attributeName="x1" dur="3.4s" values="-1;1" repeatCount="indefinite"/>
      <animate attributeName="x2" dur="3.4s" values="0;2" repeatCount="indefinite"/>
    </linearGradient>

    <linearGradient id="shine" x1="0" y1="0" x2="1" y2="0">
      <stop offset="0" stop-color="#fff" stop-opacity="0"/>
      <stop offset="0.52" stop-color="#fff" stop-opacity="0.26"/>
      <stop offset="0.7" stop-color="#fff" stop-opacity="0"/>
      <stop offset="1" stop-color="#fff" stop-opacity="0"/>
    </linearGradient>

    <!-- ===== Lightweight FX ===== -->
    <filter id="glowCyan" x="-25%" y="-25%" width="150%" height="150%">
      <feGaussianBlur stdDeviation="1.6" result="b"/>
      <feColorMatrix in="b" type="matrix"
        values="0 0 0 0 0
                0 0 0 0 1
                0 0 0 0 1
                0 0 0 0.7 0" result="c"/>
      <feMerge>
        <feMergeNode in="c"/>
        <feMergeNode in="SourceGraphic"/>
      </feMerge>
    </filter>

    <filter id="glowMag" x="-25%" y="-25%" width="150%" height="150%">
      <feGaussianBlur stdDeviation="1.8" result="b"/>
      <feColorMatrix in="b" type="matrix"
        values="1 0 0 0 0.9
                0 0 0 0 0
                0 0 0 0 0.9
                0 0 0 0.62 0" result="c"/>
      <feMerge>
        <feMergeNode in="c"/>
        <feMergeNode in="SourceGraphic"/>
      </feMerge>
    </filter>

    <filter id="noise" x="0" y="0" width="100%" height="100%">
      <feTurbulence type="fractalNoise" baseFrequency="0.85" numOctaves="2" stitchTiles="stitch" result="n"/>
      <feColorMatrix in="n" type="matrix"
        values="0 0 0 0 1
                0 0 0 0 1
                0 0 0 0 1
                0 0 0 0.05 0"/>
    </filter>

    <filter id="glitch" x="-20%" y="-20%" width="140%" height="140%">
      <feColorMatrix type="matrix" in="SourceGraphic" result="base"
        values="1 0 0 0 0
                0 1 0 0 0
                0 0 1 0 0
                0 0 0 1 0"/>
      <feOffset in="base" dx="-1.5" dy="0" result="r">
        <animate attributeName="dx" dur="4.8s" values="0;0;0;-1.5;1.5;0;0;0" repeatCount="indefinite"/>
      </feOffset>
      <feOffset in="base" dx="1.5" dy="0" result="b">
        <animate attributeName="dx" dur="4.8s" values="0;0;0;1.5;-1.5;0;0;0" repeatCount="indefinite"/>
      </feOffset>
      <feColorMatrix in="r" type="matrix" result="rC"
        values="1 0 0 0 0
                0 0 0 0 0
                0 0 0 0 0
                0 0 0 0.52 0"/>
      <feColorMatrix in="b" type="matrix" result="bC"
        values="0 0 0 0 0
                0 0 0 0 0
                0 0 1 0 0
                0 0 0 0.42 0"/>
      <feMerge>
        <feMergeNode in="rC"/>
        <feMergeNode in="bC"/>
        <feMergeNode in="SourceGraphic"/>
      </feMerge>
    </filter>

    <!-- scanlines -->
    <pattern id="scanlines" width="6" height="6" patternUnits="userSpaceOnUse">
      <rect width="6" height="6" fill="transparent"/>
      <rect y="0" width="6" height="1.2" fill="#fff" opacity="0.06"/>
    </pattern>

    <!-- rain pattern -->
    <pattern id="rain" width="20" height="28" patternUnits="userSpaceOnUse">
      <path d="M16 -2 L8 18" stroke="#B9FFF6" stroke-opacity="0.14" stroke-width="1.3"/>
      <path d="M6 6 L0 20" stroke="#FF6BFF" stroke-opacity="0.08" stroke-width="1.1"/>
      <path d="M20 10 L12 30" stroke="#00FFE0" stroke-opacity="0.07" stroke-width="1.1"/>
    </pattern>

    <!-- clip rain/particles so they don't cover the main panel -->
    <clipPath id="clipTopFx">
      <rect x="0" y="0" width="1200" height="210"/>
    </clipPath>

    <!-- radar clip -->
    <clipPath id="clipRadar">
      <circle cx="185" cy="156" r="70"/>
    </clipPath>

    <style>
      :root { color-scheme: dark; }
      .mono { font-family: ui-monospace, SFMono-Regular, Menlo, Consolas, "Liberation Mono", monospace; }
      .title { font-weight: 900; letter-spacing: 10px; }
      .crisp { shape-rendering: crispEdges; }

      @keyframes scanDown { 0%{transform:translateY(-90px);opacity:0;} 10%{opacity:.7;} 90%{opacity:.7;} 100%{transform:translateY(370px);opacity:0;} }
      @keyframes flicker { 0%,100%{opacity:.92;} 48%{opacity:.78;} 52%{opacity:1;} 70%{opacity:.86;} }
      @keyframes streamX { 0%{transform:translateX(-260px);opacity:0;} 10%{opacity:.85;} 90%{opacity:.85;} 100%{transform:translateX(1460px);opacity:0;} }
      @keyframes noisePulse { 0%,100%{opacity:.14;transform:translate(0,0);} 50%{opacity:.22;transform:translate(1px,-1px);} }
      @keyframes cursorBlink { 0%,49%{opacity:0;} 50%,100%{opacity:1;} }
      @keyframes radarRot { 0%{transform:rotate(0deg);} 100%{transform:rotate(360deg);} }
      @keyframes textGlitch { 0%,74%{transform:translateX(0);opacity:1;} 75%{transform:translateX(1px);opacity:.8;} 77%{transform:translateX(-2px);opacity:.92;} 79%{transform:translateX(2px);opacity:.75;} 82%{transform:translateX(0);opacity:1;} 100%{transform:translateX(0);opacity:1;} }

      .anim-scan { animation: scanDown 3s linear infinite; }
      .anim-flicker { animation: flicker 3.6s ease-in-out infinite; }
      .anim-stream { animation: streamX 5.2s linear infinite; }
      .anim-noise { animation: noisePulse 2.7s ease-in-out infinite; }
      .anim-cursor { animation: cursorBlink 1s steps(1) infinite; }
      .radar-rot { animation: radarRot 4s linear infinite; transform-origin:185px 156px; }
      .txt-glitch { animation: textGlitch 5.2s steps(1) infinite; transform-origin:607px 148px; }
    </style>
  </defs>

  <!-- ===================================================== -->
  <!-- BG -->
  <!-- ===================================================== -->
  <g id="bg">
    <rect width="1200" height="320" fill="url(#bg)"/>
    <rect width="1200" height="320" filter="url(#noise)" opacity="0.18" class="anim-noise"/>
    <rect width="1200" height="320" fill="url(#scanlines)" opacity="0.9"/>

    <!-- Horizontal light sweep overlay (as requested) -->
    <rect width="1200" height="320" fill="url(#sweep)" opacity="0.78"/>

    <!-- Cleaner perspective grid (less dense) -->
    <g class="crisp" opacity="0.16" fill="none">
      <g stroke="#00FFE0" stroke-width="1.1">
        <path d="M600 198 L70 320"/>
        <path d="M600 198 L230 320"/>
        <path d="M600 198 L390 320"/>
        <path d="M600 198 L810 320"/>
        <path d="M600 198 L970 320"/>
        <path d="M600 198 L1130 320"/>
      </g>
      <g stroke="#FF2BD6" stroke-width="1">
        <path d="M0 320 H1200"/>
        <path d="M170 298 H1030"/>
        <path d="M290 280 H910"/>
        <path d="M390 265 H810"/>
        <path d="M470 252 H730"/>
      </g>
    </g>

    <!-- Scan band -->
    <g class="anim-scan" opacity="0.8">
      <rect x="0" y="0" width="1200" height="74" fill="url(#scanBand)"/>
    </g>
  </g>

  <!-- ===================================================== -->
  <!-- CITY (behind panel) -->
  <!-- ===================================================== -->
  <g id="city" opacity="0.94">
    <path d="M0 320V252
             H60V222H88V252H132V210H162V252H210V232H242V252
             H300V205H340V252H382V226H410V252
             H470V192H506V252H548V218H576V252
             H632V208H662V252H720V196H760V252
             H820V222H850V252H910V188H948V252
             H1005V212H1038V252H1100V200H1140V252
             H1200V236V320Z"
          fill="rgba(0,0,0,0.72)"/>
    <path d="M0 320V268
             H44V236H72V268H118V214H154V268
             H206V244H238V268
             H290V206H332V268
             H378V232H410V268
             H456V198H504V268
             H548V242H578V268
             H626V192H676V268
             H724V228H756V268
             H804V204H858V268
             H904V240H936V268
             H984V210H1030V268
             H1076V238H1110V268
             H1150V208H1200V250V320Z"
          fill="rgba(0,0,0,0.84)"/>
    <path d="M0 320V278
             H28V250H60V278
             H100V230H140V278
             H176V258H210V278
             H252V218H292V278
             H332V250H364V278
             H404V234H444V278
             H486V260H514V278
             H558V214H602V278
             H642V248H676V278
             H720V228H764V278
             H804V258H836V278
             H880V220H928V278
             H970V252H1002V278
             H1046V216H1096V278
             H1138V248H1172V278
             H1200V262V320Z"
          fill="rgba(0,0,0,0.90)"/>

    <g fill="none" stroke-width="3" opacity="0.20">
      <path d="M470 192V252" stroke="#00FFE0"/>
      <path d="M626 192V268" stroke="#39FF14"/>
      <path d="M910 188V252" stroke="#FF2BD6"/>
    </g>

    <g opacity="0.80">
      <path d="M586 238h14 M586 250h14 M586 262h14
               M886 238h14 M886 250h14 M886 262h14"
            stroke="#00FFE0" stroke-opacity="0.14" stroke-width="3"/>
      <animate attributeName="opacity" dur="2.2s" values="0.28;0.9;0.4;0.78;0.28" repeatCount="indefinite"/>
    </g>

    <rect x="0" y="190" width="1200" height="130" fill="url(#haze)" opacity="0.62"/>
  </g>

  <!-- ===================================================== -->
  <!-- HUD -->
  <!-- ===================================================== -->
  <g id="hud">
    <!-- Left radar -->
    <g opacity="0.95">
      <circle cx="185" cy="156" r="70" fill="rgba(0,0,0,0.20)" stroke="#00FFE0" stroke-opacity="0.34" stroke-width="2" filter="url(#glowCyan)" class="anim-flicker"/>
      <circle cx="185" cy="156" r="50" fill="none" stroke="#00FFE0" stroke-opacity="0.16" stroke-width="1.3"/>
      <circle cx="185" cy="156" r="30" fill="none" stroke="#FF2BD6" stroke-opacity="0.11" stroke-width="1.1"/>
      <path d="M185 86V226 M115 156H255" stroke="#00FFE0" stroke-opacity="0.12" stroke-width="1.2" class="crisp"/>

      <g clip-path="url(#clipRadar)" class="radar-rot" opacity="0.9">
        <path d="M185 156 L185 86 A70 70 0 0 1 236 102 Z" fill="#00FFE0" opacity="0.075"/>
        <path d="M185 156 L185 86 A70 70 0 0 1 220 94 Z" fill="#39FF14" opacity="0.055"/>
      </g>

      <circle cx="216" cy="142" r="2.2" fill="#39FF14" opacity="0.8" filter="url(#glowCyan)">
        <animate attributeName="opacity" dur="1.6s" values="0.2;0.9;0.2" repeatCount="indefinite"/>
      </circle>
    </g>

    <!-- Central main panel -->
    <g id="panel" class="anim-flicker">
      <rect x="245" y="64" width="725" height="168" rx="18"
            fill="rgba(0,0,0,0.32)" stroke="url(#neonCyan)" stroke-opacity="0.55" stroke-width="2"
            filter="url(#glowCyan)"/>
      <rect x="265" y="82" width="685" height="132" rx="14"
            fill="rgba(10,12,22,0.54)" stroke="url(#neonMag)" stroke-opacity="0.20" stroke-width="1"/>
      <g class="crisp" opacity="0.5">
        <path d="M270 106H330 M270 126H308" stroke="#00FFE0" stroke-opacity="0.20" stroke-width="2"/>
        <path d="M890 106H950 M912 126H950" stroke="#FF2BD6" stroke-opacity="0.16" stroke-width="2"/>
      </g>

      <!-- Icons row (new) -->
      <g transform="translate(294 92)" opacity="0.9">
        <!-- shield -->
        <g transform="translate(0 0)" filter="url(#glowCyan)">
          <path d="M14 2 L26 6 V16 C26 22 20 26 14 28 C8 26 2 22 2 16 V6 Z"
                fill="rgba(0,255,224,0.10)" stroke="#00FFE0" stroke-opacity="0.45" stroke-width="1.5"/>
          <path d="M8 14 L12 18 L20 10" fill="none" stroke="#00FFE0" stroke-opacity="0.85" stroke-width="2" stroke-linecap="round" stroke-linejoin="round"/>
        </g>

        <!-- terminal -->
        <g transform="translate(44 0)" filter="url(#glowMag)">
          <rect x="0" y="2" width="28" height="22" rx="5" fill="rgba(0,0,0,0.38)" stroke="#FF2BD6" stroke-opacity="0.45" stroke-width="1.5"/>
          <path d="M6 10 L11 13 L6 16" fill="none" stroke="#FF6BFF" stroke-opacity="0.9" stroke-width="2" stroke-linecap="round" stroke-linejoin="round"/>
          <path d="M13 17 H22" stroke="#FF6BFF" stroke-opacity="0.7" stroke-width="2" stroke-linecap="round"/>
        </g>

        <!-- linux (simple penguin head-ish) -->
        <g transform="translate(88 0)" filter="url(#glowCyan)">
          <circle cx="14" cy="14" r="10" fill="rgba(0,255,224,0.08)" stroke="#00FFE0" stroke-opacity="0.35" stroke-width="1.5"/>
          <circle cx="11" cy="13" r="1.2" fill="#B9FFF6" opacity="0.9"/>
          <circle cx="17" cy="13" r="1.2" fill="#B9FFF6" opacity="0.9"/>
          <path d="M14 15 C12.5 15.8, 15.5 15.8, 14 15 Z" fill="#39FF14" opacity="0.75"/>
        </g>

        <!-- network node -->
        <g transform="translate(132 0)" filter="url(#glowMag)">
          <circle cx="6" cy="18" r="3" fill="#FF6BFF" opacity="0.7"/>
          <circle cx="22" cy="10" r="3" fill="#FF6BFF" opacity="0.7"/>
          <circle cx="24" cy="22" r="3" fill="#FF6BFF" opacity="0.7"/>
          <path d="M8.5 16.5 L19.5 11.5 M9 19 L21 21" stroke="#FF2BD6" stroke-opacity="0.35" stroke-width="1.6" stroke-linecap="round"/>
        </g>
      </g>
    </g>

    <!-- Streams -->
    <g id="streams" opacity="0.7">
      <g class="anim-stream">
        <path d="M260 52 H520" stroke="#00FFE0" stroke-opacity="0.14" stroke-width="2"/>
        <circle cx="520" cy="52" r="2.1" fill="#00FFE0" opacity="0.46"/>
      </g>
      <g class="anim-stream" style="animation-duration:6.0s; animation-delay:0.8s;">
        <path d="M700 46 H980" stroke="#39FF14" stroke-opacity="0.10" stroke-width="2"/>
        <circle cx="980" cy="46" r="2.0" fill="#39FF14" opacity="0.36"/>
      </g>
    </g>
  </g>

  <!-- ===================================================== -->
  <!-- Drone / Aircar -->
  <!-- ===================================================== -->
  <g id="air" opacity="0.9">
    <g transform="translate(-180 238)">
      <animateTransform attributeName="transform" type="translate" dur="10s"
        values="-180 238; 1380 238" repeatCount="indefinite"/>
      <path d="M20 14 C42 2, 86 2, 108 14
               L132 16 C140 17, 140 25, 132 26
               L108 28 C86 40, 42 40, 20 28
               L6 26 C-2 25, -2 17, 6 16 Z"
            fill="rgba(0,0,0,0.55)" stroke="#00FFE0" stroke-opacity="0.20" filter="url(#glowCyan)"/>
      <path d="M52 14 C62 8, 78 8, 88 14 L82 22 C74 26, 66 26, 58 22 Z"
            fill="rgba(0,255,224,0.07)" stroke="#00FFE0" stroke-opacity="0.18"/>
      <circle cx="22" cy="22" r="3" fill="#00FFE0" opacity="0.30"/>
      <circle cx="106" cy="22" r="3" fill="#00FFE0" opacity="0.30"/>
      <animateTransform attributeName="transform" additive="sum" type="translate" dur="1.8s"
        values="0 0; 0 -2; 0 0; 0 2; 0 0" repeatCount="indefinite"/>
    </g>
  </g>

  <!-- ===================================================== -->
  <!-- FX: rain + particles -->
  <!-- ===================================================== -->
  <g id="fx" clip-path="url(#clipTopFx)">
    <g opacity="0.55">
      <rect x="0" y="-40" width="1200" height="320" fill="url(#rain)" opacity="0.52">
        <animate attributeName="y" dur="0.98s" values="-40;0" repeatCount="indefinite"/>
      </rect>
      <rect x="0" y="-60" width="1200" height="320" fill="url(#rain)" opacity="0.24">
        <animate attributeName="y" dur="1.28s" values="-60;0" repeatCount="indefinite"/>
      </rect>
    </g>
    <g opacity="0.78">
      <g filter="url(#glowCyan)">
        <circle cx="360" cy="56" r="1.6" fill="#00FFE0">
          <animate attributeName="cy" dur="6.2s" values="62;48;62" repeatCount="indefinite"/>
          <animate attributeName="opacity" dur="2.1s" values="0.1;0.8;0.15;0.65;0.1" repeatCount="indefinite"/>
        </circle>
        <circle cx="1040" cy="86" r="1.8" fill="#00FFE0">
          <animate attributeName="cy" dur="5.4s" values="94;72;94" repeatCount="indefinite"/>
          <animate attributeName="opacity" dur="1.9s" values="0.1;0.9;0.2;0.75;0.1" repeatCount="indefinite"/>
        </circle>
      </g>
      <g filter="url(#glowMag)">
        <circle cx="560" cy="96" r="1.7" fill="#FF6BFF">
          <animate attributeName="cy" dur="6.0s" values="102;88;102" repeatCount="indefinite"/>
          <animate attributeName="opacity" dur="2.2s" values="0.1;0.8;0.2;0.7;0.1" repeatCount="indefinite"/>
        </circle>
      </g>
    </g>
  </g>

  <!-- ===================================================== -->
  <!-- TEXT -->
  <!-- ===================================================== -->
  <g id="text" class="mono">
    <g class="txt-glitch" filter="url(#glitch)">
      <text x="607" y="152" text-anchor="middle" font-size="88" class="title"
            fill="url(#neonCyan)" filter="url(#glowCyan)">SNACK</text>
    </g>

    <text x="609" y="152" text-anchor="middle" font-size="88" class="title"
          fill="url(#neonMag)" opacity="0.18" filter="url(#glowMag)">
      SNACK
      <animate attributeName="opacity" dur="4.8s" values="0.0;0.0;0.18;0.0;0.0" repeatCount="indefinite"/>
    </text>

    <text x="607" y="202" text-anchor="middle" font-size="18" font-weight="700"
          fill="#B9FFF6" opacity="0.92">
      Red Team Operator • Offensive Security • CTF Player
    </text>
  </g>

  <!-- ===================================================== -->
  <!-- BADGES (smaller, bottom-right) -->
  <!-- ===================================================== -->
  <g id="badges" class="mono" font-size="11" font-weight="800" transform="translate(760 272)">
    <g class="anim-flicker">
      <rect x="0" y="0" width="120" height="24" rx="12" fill="rgba(0,0,0,0.40)" stroke="url(#neonCyan)" stroke-opacity="0.52" filter="url(#glowCyan)"/>
      <rect x="-40" y="0" width="56" height="24" fill="url(#shine)" opacity="0.42">
        <animate attributeName="x" dur="2.8s" values="-40;140" repeatCount="indefinite"/>
      </rect>
      <text x="12" y="16" fill="#B9FFF6" opacity="0.92">STATUS:</text>
      <text x="72" y="16" fill="#39FF14" opacity="0.95">ACTIVE</text>
    </g>

    <g transform="translate(130 0)" class="anim-flicker" style="animation-delay:0.35s;">
      <rect x="0" y="0" width="160" height="24" rx="12" fill="rgba(0,0,0,0.40)" stroke="url(#neonMag)" stroke-opacity="0.48" filter="url(#glowMag)"/>
      <rect x="-50" y="0" width="64" height="24" fill="url(#shine)" opacity="0.40">
        <animate attributeName="x" dur="3.1s" values="-50;176" repeatCount="indefinite"/>
      </rect>
      <text x="12" y="16" fill="#FFD1FA" opacity="0.92">MODE:</text>
      <text x="56" y="16" fill="#FF6BFF" opacity="0.95">STEALTH-FIRST</text>
    </g>

    <g transform="translate(300 0)" class="anim-flicker" style="animation-delay:0.7s;">
      <rect x="0" y="0" width="140" height="24" rx="12" fill="rgba(0,0,0,0.40)" stroke="url(#neonLime)" stroke-opacity="0.52" filter="url(#glowCyan)"/>
      <rect x="-45" y="0" width="64" height="24" fill="url(#shine)" opacity="0.40">
        <animate attributeName="x" dur="2.9s" values="-45;156" repeatCount="indefinite"/>
      </rect>
      <text x="12" y="16" fill="#DFFFE0" opacity="0.92">FOCUS:</text>
      <text x="60" y="16" fill="#39FF14" opacity="0.95">RED TEAM</text>
    </g>
  </g>

  <!-- Vignette -->
  <rect width="1200" height="320" fill="rgba(0,0,0,0.14)"/>
</svg>
